<svg xmlns="http://www.w3.org/2000/svg" xmlns:xlink="http://www.w3.org/1999/xlink" viewBox="0 0 1047.59 844.75"><defs><style>.bff0bedb-0796-4723-8750-5fedc580c4d6{fill:none;}.b37b391f-385a-445a-9b0e-60349964426f{clip-path:url(#ac6c4a01-8a38-40ab-a97d-d3001b89ea9b);}.ab24175f-8e34-46e7-b509-64d95743d053,.ea6dbb9c-ae21-4277-8e2d-562525a08fbb,.edc58bf3-95f5-4b01-95de-f9ace27f02d0{fill:#0aae92;}.b4f5feab-6032-4e30-acc3-0786e6d87204,.edc58bf3-95f5-4b01-95de-f9ace27f02d0{font-size:47.53px;}.ab24175f-8e34-46e7-b509-64d95743d053,.b4f5feab-6032-4e30-acc3-0786e6d87204,.edc58bf3-95f5-4b01-95de-f9ace27f02d0{font-family:BellMTBold, Bell MT;}.aca3bb1f-65f0-4802-9d41-44e9884094ed{fill:#0e6456;}.ab24175f-8e34-46e7-b509-64d95743d053{font-size:44px;}</style><clipPath id="ac6c4a01-8a38-40ab-a97d-d3001b89ea9b" transform="translate(201.55 6.61)"><rect class="bff0bedb-0796-4723-8750-5fedc580c4d6" width="589" height="574"/></clipPath></defs><title>Compass2.0</title><g id="fb2e775d-3bf9-4fbe-889f-2a639d51545d" data-name="Capa 2"><g id="abf49945-2ec6-47d7-84d7-0a3ec9651268" data-name="Brujula"><g id="b97b15bb-fedf-4839-8021-37e10d5feadb" data-name="Mascara de capa"><g class="b37b391f-385a-445a-9b0e-60349964426f"><g id="e8c52029-0a28-4497-9780-fa22733ef3fc" data-name="Brujula"><path class="ea6dbb9c-ae21-4277-8e2d-562525a08fbb" d="M298.72,101.24a181.43,181.43,0,1,1-70.84,14.3,180.86,180.86,0,0,1,70.84-14.3m0-5c-103.28,0-187,83.73-187,187s83.72,187,187,187,187-83.72,187-187-83.73-187-187-187Z" transform="translate(201.55 6.61)"/><path class="ea6dbb9c-ae21-4277-8e2d-562525a08fbb" d="M298.72,134.83a148.4,148.4,0,1,1-105,43.47,147.44,147.44,0,0,1,105-43.47m0-5A153.41,153.41,0,1,0,452.13,283.24,153.41,153.41,0,0,0,298.72,129.83Z" transform="translate(201.55 6.61)"/><text class="b4f5feab-6032-4e30-acc3-0786e6d87204" transform="translate(582.53 104.83) rotate(25.75)"> </text><text class="b4f5feab-6032-4e30-acc3-0786e6d87204" transform="translate(593.5 110.1) rotate(29.22)"> </text><text class="b4f5feab-6032-4e30-acc3-0786e6d87204" transform="matrix(0.84, 0.54, -0.54, 0.84, 604.11, 116.02)"> </text><text class="b4f5feab-6032-4e30-acc3-0786e6d87204" transform="matrix(0.81, 0.59, -0.59, 0.81, 614.36, 122.57)"> </text><text class="edc58bf3-95f5-4b01-95de-f9ace27f02d0" transform="translate(624.19 129.34) rotate(41.32)">n</text><text class="edc58bf3-95f5-4b01-95de-f9ace27f02d0" transform="matrix(0.67, 0.74, -0.74, 0.67, 642.85, 145.79)">e</text><text class="edc58bf3-95f5-4b01-95de-f9ace27f02d0" transform="translate(657.54 162.32) rotate(52.71)"> </text><text class="edc58bf3-95f5-4b01-95de-f9ace27f02d0" transform="matrix(0.56, 0.83, -0.83, 0.56, 664.92, 171.99)"> </text><text class="edc58bf3-95f5-4b01-95de-f9ace27f02d0" transform="matrix(0.51, 0.86, -0.86, 0.51, 671.69, 182.07)"> </text><text class="edc58bf3-95f5-4b01-95de-f9ace27f02d0" transform="translate(677.87 192.56) rotate(63.05)"> </text><text class="edc58bf3-95f5-4b01-95de-f9ace27f02d0" transform="matrix(0.4, 0.92, -0.92, 0.4, 683.39, 203.39)"> </text><text class="edc58bf3-95f5-4b01-95de-f9ace27f02d0" transform="translate(688.25 214.53) rotate(69.98)"> </text><text class="edc58bf3-95f5-4b01-95de-f9ace27f02d0" transform="translate(692.42 225.94) rotate(73.46)"> </text><text class="edc58bf3-95f5-4b01-95de-f9ace27f02d0" transform="matrix(0.23, 0.97, -0.97, 0.23, 695.9, 237.61)"> </text><text class="edc58bf3-95f5-4b01-95de-f9ace27f02d0" transform="translate(698.66 249.44) rotate(80.4)"> </text><text class="edc58bf3-95f5-4b01-95de-f9ace27f02d0" transform="translate(700.7 261.43) rotate(83.85)"> </text><text class="edc58bf3-95f5-4b01-95de-f9ace27f02d0" transform="matrix(0.05, 1, -1, 0.05, 702.02, 273.51)"> </text><text class="edc58bf3-95f5-4b01-95de-f9ace27f02d0" transform="matrix(-0.02, 1, -1, -0.02, 702.64, 285.62)"> </text><text class="edc58bf3-95f5-4b01-95de-f9ace27f02d0" transform="matrix(-0.07, 1, -1, -0.07, 702.49, 297.83)"> </text><text class="edc58bf3-95f5-4b01-95de-f9ace27f02d0" transform="translate(701.64 309.96) rotate(97.5)"> </text><text class="edc58bf3-95f5-4b01-95de-f9ace27f02d0" transform="translate(700.07 322.02) rotate(100.95)"> </text><text class="edc58bf3-95f5-4b01-95de-f9ace27f02d0" transform="translate(697.77 333.96) rotate(104.42)"> </text><text class="edc58bf3-95f5-4b01-95de-f9ace27f02d0" transform="translate(694.75 345.74) rotate(107.9)"> </text><text class="edc58bf3-95f5-4b01-95de-f9ace27f02d0" transform="matrix(-0.36, 0.93, -0.93, -0.36, 691.04, 357.29)"> </text><text class="edc58bf3-95f5-4b01-95de-f9ace27f02d0" transform="translate(686.62 368.63) rotate(114.84)"> </text><text class="edc58bf3-95f5-4b01-95de-f9ace27f02d0" transform="translate(681.53 379.66) rotate(118.3)"> </text><text class="edc58bf3-95f5-4b01-95de-f9ace27f02d0" transform="translate(675.77 390.38) rotate(121.75)"> </text><text class="edc58bf3-95f5-4b01-95de-f9ace27f02d0" transform="matrix(-0.58, 0.82, -0.82, -0.58, 669.38, 400.73)"> </text><text class="edc58bf3-95f5-4b01-95de-f9ace27f02d0" transform="translate(662.38 410.68) rotate(128.63)"> </text><text class="edc58bf3-95f5-4b01-95de-f9ace27f02d0" transform="translate(654.81 420.18) rotate(132.05)"> </text><text class="edc58bf3-95f5-4b01-95de-f9ace27f02d0" transform="translate(646.68 429.22) rotate(135.48)"> </text><text class="edc58bf3-95f5-4b01-95de-f9ace27f02d0" transform="matrix(-0.75, 0.66, -0.66, -0.75, 638, 437.77)"> </text><text class="edc58bf3-95f5-4b01-95de-f9ace27f02d0" transform="matrix(-0.79, 0.61, -0.61, -0.79, 628.86, 445.76)"> </text><text class="edc58bf3-95f5-4b01-95de-f9ace27f02d0" transform="translate(619.23 453.21) rotate(145.78)"> </text><text class="edc58bf3-95f5-4b01-95de-f9ace27f02d0" transform="matrix(-0.86, 0.51, -0.51, -0.86, 609.19, 460.06)"> </text><text class="edc58bf3-95f5-4b01-95de-f9ace27f02d0" transform="translate(598.73 466.3) rotate(152.68)"> </text><text class="edc58bf3-95f5-4b01-95de-f9ace27f02d0" transform="matrix(-0.91, 0.4, -0.4, -0.91, 587.95, 471.88)"> </text><text class="edc58bf3-95f5-4b01-95de-f9ace27f02d0" transform="matrix(-0.94, 0.35, -0.35, -0.94, 576.83, 476.82)"> </text><text class="edc58bf3-95f5-4b01-95de-f9ace27f02d0" transform="translate(565.43 481.07) rotate(163.09)"> </text><text class="edc58bf3-95f5-4b01-95de-f9ace27f02d0" transform="translate(553.82 484.61) rotate(166.56)"> </text><text class="edc58bf3-95f5-4b01-95de-f9ace27f02d0" transform="matrix(-0.98, 0.17, -0.17, -0.98, 541.98, 487.45)"> </text><text class="edc58bf3-95f5-4b01-95de-f9ace27f02d0" transform="matrix(-0.99, 0.11, -0.11, -0.99, 530.02, 489.57)"> </text><text class="edc58bf3-95f5-4b01-95de-f9ace27f02d0" transform="translate(517.94 490.97) rotate(176.91)"> </text><text class="edc58bf3-95f5-4b01-95de-f9ace27f02d0" transform="translate(505.76 491.71) rotate(-179.07)"> </text><text class="edc58bf3-95f5-4b01-95de-f9ace27f02d0" transform="translate(493.64 491.59) rotate(-176.31)"> </text><text class="edc58bf3-95f5-4b01-95de-f9ace27f02d0" transform="translate(481.48 490.82) rotate(-172.87)"> </text><text class="edc58bf3-95f5-4b01-95de-f9ace27f02d0" transform="translate(469.43 489.32) rotate(-169.42)"> </text><text class="edc58bf3-95f5-4b01-95de-f9ace27f02d0" transform="translate(457.48 487.11) rotate(-165.95)"> </text><text class="edc58bf3-95f5-4b01-95de-f9ace27f02d0" transform="translate(445.69 484.17) rotate(-162.48)"> </text><text class="edc58bf3-95f5-4b01-95de-f9ace27f02d0" transform="matrix(-0.93, -0.36, 0.36, -0.93, 434.06, 480.52)"> </text><text class="edc58bf3-95f5-4b01-95de-f9ace27f02d0" transform="translate(422.71 476.17) rotate(-155.53)"> </text><text class="edc58bf3-95f5-4b01-95de-f9ace27f02d0" transform="translate(411.66 471.16) rotate(-152.07)"> </text><text class="edc58bf3-95f5-4b01-95de-f9ace27f02d0" transform="matrix(-0.85, -0.52, 0.52, -0.85, 400.9, 465.47)"> </text><text class="edc58bf3-95f5-4b01-95de-f9ace27f02d0" transform="translate(390.51 459.15) rotate(-145.17)"> </text><text class="edc58bf3-95f5-4b01-95de-f9ace27f02d0" transform="matrix(-0.79, -0.62, 0.62, -0.79, 380.53, 452.22)"> </text><text class="edc58bf3-95f5-4b01-95de-f9ace27f02d0" transform="translate(370.97 444.7) rotate(-138.31)"> </text><text class="edc58bf3-95f5-4b01-95de-f9ace27f02d0" transform="translate(361.88 436.62) rotate(-134.88)"> </text><text class="edc58bf3-95f5-4b01-95de-f9ace27f02d0" transform="translate(353.29 428.01) rotate(-131.46)"> </text><text class="edc58bf3-95f5-4b01-95de-f9ace27f02d0" transform="matrix(-0.62, -0.79, 0.79, -0.62, 345.22, 418.9)"> </text><text class="edc58bf3-95f5-4b01-95de-f9ace27f02d0" transform="matrix(-0.57, -0.82, 0.82, -0.57, 337.72, 409.33)"> </text><text class="edc58bf3-95f5-4b01-95de-f9ace27f02d0" transform="matrix(-0.52, -0.86, 0.86, -0.52, 330.8, 399.33)"> </text><text class="edc58bf3-95f5-4b01-95de-f9ace27f02d0" transform="translate(324.5 388.92) rotate(-117.69)"> </text><text class="edc58bf3-95f5-4b01-95de-f9ace27f02d0" transform="matrix(-0.41, -0.91, 0.91, -0.41, 318.84, 378.18)"> </text><text class="edc58bf3-95f5-4b01-95de-f9ace27f02d0" transform="matrix(-0.35, -0.94, 0.94, -0.35, 313.84, 367.1)"> </text><text class="edc58bf3-95f5-4b01-95de-f9ace27f02d0" transform="translate(309.52 355.74) rotate(-107.29)"> </text><text class="edc58bf3-95f5-4b01-95de-f9ace27f02d0" transform="translate(305.89 344.14) rotate(-103.81)"> </text><text class="edc58bf3-95f5-4b01-95de-f9ace27f02d0" transform="translate(302.97 332.31) rotate(-100.34)"> </text><text class="edc58bf3-95f5-4b01-95de-f9ace27f02d0" transform="translate(300.78 320.38) rotate(-96.89)"> </text><text class="edc58bf3-95f5-4b01-95de-f9ace27f02d0" transform="translate(299.3 308.28) rotate(-93.46)"> </text><text class="edc58bf3-95f5-4b01-95de-f9ace27f02d0" transform="matrix(-0.02, -1, 1, -0.02, 298.65, 296.14)"> </text><text class="edc58bf3-95f5-4b01-95de-f9ace27f02d0" transform="translate(298.53 283.98) rotate(-86.67)"> </text><text class="edc58bf3-95f5-4b01-95de-f9ace27f02d0" transform="translate(299.22 271.85) rotate(-83.24)"> </text><text class="edc58bf3-95f5-4b01-95de-f9ace27f02d0" transform="matrix(0.18, -0.98, 0.98, 0.18, 300.64, 259.75)"> </text><text class="edc58bf3-95f5-4b01-95de-f9ace27f02d0" transform="translate(302.78 247.8) rotate(-76.32)"> </text><text class="edc58bf3-95f5-4b01-95de-f9ace27f02d0" transform="translate(305.65 235.98) rotate(-72.84)"> </text><text class="edc58bf3-95f5-4b01-95de-f9ace27f02d0" transform="translate(309.22 224.36) rotate(-69.37)"> </text><text class="edc58bf3-95f5-4b01-95de-f9ace27f02d0" transform="translate(313.49 212.97) rotate(-65.9)"> </text><text class="edc58bf3-95f5-4b01-95de-f9ace27f02d0" transform="matrix(0.46, -0.89, 0.89, 0.46, 318.43, 201.88)"> </text><text class="edc58bf3-95f5-4b01-95de-f9ace27f02d0" transform="matrix(0.52, -0.86, 0.86, 0.52, 324.05, 191.09)"> </text><text class="edc58bf3-95f5-4b01-95de-f9ace27f02d0" transform="matrix(0.57, -0.82, 0.82, 0.57, 330.31, 180.65)"> </text><text class="edc58bf3-95f5-4b01-95de-f9ace27f02d0" transform="translate(336.79 170.63) rotate(-50.32)">n</text><text class="edc58bf3-95f5-4b01-95de-f9ace27f02d0" transform="matrix(0.74, -0.67, 0.67, 0.74, 352.27, 151.38)">w</text><text class="edc58bf3-95f5-4b01-95de-f9ace27f02d0" transform="translate(377.3 129.43) rotate(-35.84)"> </text><text class="b4f5feab-6032-4e30-acc3-0786e6d87204" transform="translate(387.15 122.3) rotate(-32.39)"> </text><text class="b4f5feab-6032-4e30-acc3-0786e6d87204" transform="translate(397.42 115.77) rotate(-28.94)"> </text><text class="b4f5feab-6032-4e30-acc3-0786e6d87204" transform="translate(408.04 109.88) rotate(-25.49)"> </text><text class="b4f5feab-6032-4e30-acc3-0786e6d87204" transform="translate(419.02 104.63) rotate(-22.02)"> </text><text class="b4f5feab-6032-4e30-acc3-0786e6d87204" transform="translate(430.29 100.05) rotate(-18.54)"> </text><text class="b4f5feab-6032-4e30-acc3-0786e6d87204" transform="translate(441.8 96.18) rotate(-15.07)"> </text><text class="b4f5feab-6032-4e30-acc3-0786e6d87204" transform="translate(453.54 93) rotate(-11.6)"> </text><text class="b4f5feab-6032-4e30-acc3-0786e6d87204" transform="matrix(0.99, -0.14, 0.14, 0.99, 465.46, 90.54)"> </text><text class="b4f5feab-6032-4e30-acc3-0786e6d87204" transform="matrix(1, -0.08, 0.08, 1, 477.48, 88.81)"> </text><text class="b4f5feab-6032-4e30-acc3-0786e6d87204" transform="matrix(1, -0.02, 0.02, 1, 489.62, 87.8)"> </text><text class="b4f5feab-6032-4e30-acc3-0786e6d87204" transform="translate(501.77 87.51) rotate(2.1)"> </text><text class="b4f5feab-6032-4e30-acc3-0786e6d87204" transform="translate(513.93 87.94) rotate(5.52)"> </text><text class="b4f5feab-6032-4e30-acc3-0786e6d87204" transform="matrix(0.99, 0.16, -0.16, 0.99, 526.02, 89.1)"> </text><g id="b278628b-6c06-4b7f-b214-459096bb39ac" data-name="Estrella secundaria"><path class="ea6dbb9c-ae21-4277-8e2d-562525a08fbb" d="M264.79,280.21l-61.64-85.94a4.84,4.84,0,0,1,6.75-6.75l86,61.63a4.82,4.82,0,0,0,5.63,0l85.95-61.63a4.84,4.84,0,0,1,6.75,6.75l-61.64,85.94a4.84,4.84,0,0,0,0,5.64l61.64,85.95a4.83,4.83,0,0,1-6.75,6.74l-85.95-61.63a4.82,4.82,0,0,0-5.63,0l-86,61.63a4.83,4.83,0,0,1-6.75-6.74l61.64-85.95A4.84,4.84,0,0,0,264.79,280.21Z" transform="translate(201.55 6.61)"/><path class="aca3bb1f-65f0-4802-9d41-44e9884094ed" d="M298.52,283.15h-33a4.82,4.82,0,0,1-.9,2.69l-61.64,86a4.7,4.7,0,0,0,.59,6.31l94.94-95Z" transform="translate(201.55 6.61)"/><path class="aca3bb1f-65f0-4802-9d41-44e9884094ed" d="M298.65,283.48v33a4.87,4.87,0,0,1,2.69.9L387.28,379a4.7,4.7,0,0,0,6.31-.59l-94.94-94.94Z" transform="translate(201.55 6.61)"/><path class="aca3bb1f-65f0-4802-9d41-44e9884094ed" d="M207,186.53a4.87,4.87,0,0,0-3.49,1.54L298.47,283V250a4.78,4.78,0,0,1-2.69-.89l-85.94-61.64a4.85,4.85,0,0,0-2.82-.95Z" transform="translate(201.55 6.61)"/><path class="aca3bb1f-65f0-4802-9d41-44e9884094ed" d="M393.85,188.63l-94.94,94.95h33a4.81,4.81,0,0,1,.89-2.69l61.64-85.95a4.71,4.71,0,0,0-.59-6.31Z" transform="translate(201.55 6.61)"/></g><g id="aec981b7-4f86-49fc-a339-66b1c2658eb2" data-name="Estrella principal"><path class="ea6dbb9c-ae21-4277-8e2d-562525a08fbb" d="M260.47,238.06,290.41,56.31c1.55-9.41,15.07-9.41,16.62,0L337,238.06a8.41,8.41,0,0,0,6.94,6.94l181.75,29.94c9.41,1.55,9.41,15.07,0,16.62L343.91,321.5a8.42,8.42,0,0,0-6.94,6.94L307,510.19c-1.55,9.41-15.07,9.41-16.62,0L260.47,328.44a8.43,8.43,0,0,0-6.94-6.94L71.78,291.56c-9.41-1.55-9.41-15.07,0-16.62L253.53,245A8.42,8.42,0,0,0,260.47,238.06Z" transform="translate(201.55 6.61)"/><path class="aca3bb1f-65f0-4802-9d41-44e9884094ed" d="M257.92,242.65a8.39,8.39,0,0,1-4.41,2.21L71.75,274.8a8.19,8.19,0,0,0-7,8.49H298.56l-40.64-40.64Z" transform="translate(201.55 6.61)"/><path class="aca3bb1f-65f0-4802-9d41-44e9884094ed" d="M298.93,283.34,258.3,324a8.46,8.46,0,0,1,2.21,4.41l29.93,181.76a8.18,8.18,0,0,0,8.31,7h.18V283.34Z" transform="translate(201.55 6.61)"/><path class="aca3bb1f-65f0-4802-9d41-44e9884094ed" d="M298.61,49.24h-.18V283.9l41-40.78a8.39,8.39,0,0,1-2.22-4.43L307,56.31a8.25,8.25,0,0,0-8.39-7.07Z" transform="translate(201.55 6.61)"/><path class="aca3bb1f-65f0-4802-9d41-44e9884094ed" d="M532.72,283.08H298.14l40.76,40.64a8.38,8.38,0,0,1,4.43-2.21l182.33-29.94a8.2,8.2,0,0,0,7.06-8.49Z" transform="translate(201.55 6.61)"/></g><text class="ab24175f-8e34-46e7-b509-64d95743d053" transform="translate(483.02 36.23)">N</text><text class="ab24175f-8e34-46e7-b509-64d95743d053" transform="translate(754.52 301.13)">E</text><text class="ab24175f-8e34-46e7-b509-64d95743d053" transform="translate(488.52 574.13)">S</text><text class="ab24175f-8e34-46e7-b509-64d95743d053" transform="translate(206.52 301.13)">W</text><text class="b4f5feab-6032-4e30-acc3-0786e6d87204" transform="translate(283.98 409.34) rotate(25.75)"> </text><text class="b4f5feab-6032-4e30-acc3-0786e6d87204" transform="translate(294.95 414.62) rotate(29.22)"> </text><text class="b4f5feab-6032-4e30-acc3-0786e6d87204" transform="matrix(0.84, 0.54, -0.54, 0.84, 305.56, 420.54)"> </text><text class="b4f5feab-6032-4e30-acc3-0786e6d87204" transform="matrix(0.81, 0.59, -0.59, 0.81, 315.81, 427.09)"> </text><text class="edc58bf3-95f5-4b01-95de-f9ace27f02d0" transform="matrix(0.76, 0.65, -0.65, 0.76, 325.62, 434.05)">s</text><text class="edc58bf3-95f5-4b01-95de-f9ace27f02d0" transform="matrix(0.68, 0.74, -0.74, 0.68, 339.26, 444.94)">w</text><text class="b4f5feab-6032-4e30-acc3-0786e6d87204" transform="matrix(0.59, 0.81, -0.81, 0.59, 361.38, 469.85)"> </text><text class="b4f5feab-6032-4e30-acc3-0786e6d87204" transform="translate(368.58 479.65) rotate(57.24)"> </text><text class="b4f5feab-6032-4e30-acc3-0786e6d87204" transform="translate(375.16 489.86) rotate(60.69)"> </text><text class="b4f5feab-6032-4e30-acc3-0786e6d87204" transform="matrix(0.44, 0.9, -0.9, 0.44, 381.13, 500.45)"> </text><text class="b4f5feab-6032-4e30-acc3-0786e6d87204" transform="matrix(0.38, 0.92, -0.92, 0.38, 386.45, 511.4)"> </text><text class="b4f5feab-6032-4e30-acc3-0786e6d87204" transform="translate(391.09 522.63) rotate(71.08)"> </text><text class="b4f5feab-6032-4e30-acc3-0786e6d87204" transform="translate(395.04 534.12) rotate(74.56)"> </text><text class="b4f5feab-6032-4e30-acc3-0786e6d87204" transform="translate(398.29 545.83) rotate(78.03)"> </text><text class="b4f5feab-6032-4e30-acc3-0786e6d87204" transform="translate(400.83 557.72) rotate(81.49)"> </text><text class="b4f5feab-6032-4e30-acc3-0786e6d87204" transform="translate(402.64 569.75) rotate(84.93)"> </text><text class="b4f5feab-6032-4e30-acc3-0786e6d87204" transform="matrix(0.03, 1, -1, 0.03, 403.73, 581.87)"> </text><text class="b4f5feab-6032-4e30-acc3-0786e6d87204" transform="translate(404.1 594.04) rotate(91.73)"> </text><text class="b4f5feab-6032-4e30-acc3-0786e6d87204" transform="matrix(-0.09, 1, -1, -0.09, 403.74, 606.18)"> </text><text class="b4f5feab-6032-4e30-acc3-0786e6d87204" transform="matrix(0.92, 0.4, -0.4, 0.92, 871.39, 406.16)"> </text><text class="b4f5feab-6032-4e30-acc3-0786e6d87204" transform="matrix(0.89, 0.45, -0.45, 0.89, 882.57, 410.99)"> </text><text class="b4f5feab-6032-4e30-acc3-0786e6d87204" transform="translate(893.41 416.47) rotate(30.35)"> </text><text class="b4f5feab-6032-4e30-acc3-0786e6d87204" transform="matrix(0.83, 0.56, -0.56, 0.83, 903.91, 422.61)"> </text><text class="b4f5feab-6032-4e30-acc3-0786e6d87204" transform="translate(914.01 429.35) rotate(37.22)"> </text><text class="b4f5feab-6032-4e30-acc3-0786e6d87204" transform="matrix(0.76, 0.65, -0.65, 0.76, 923.7, 436.69)"> </text><text class="b4f5feab-6032-4e30-acc3-0786e6d87204" transform="matrix(0.72, 0.7, -0.7, 0.72, 932.95, 444.62)"> </text><text class="b4f5feab-6032-4e30-acc3-0786e6d87204" transform="translate(941.7 453.07) rotate(47.51)"> </text><text class="b4f5feab-6032-4e30-acc3-0786e6d87204" transform="translate(949.92 462.02) rotate(50.94)"> </text><text class="b4f5feab-6032-4e30-acc3-0786e6d87204" transform="translate(957.59 471.45) rotate(54.38)"> </text><text class="b4f5feab-6032-4e30-acc3-0786e6d87204" transform="matrix(0.53, 0.85, -0.85, 0.53, 964.69, 481.35)"> </text><text class="b4f5feab-6032-4e30-acc3-0786e6d87204" transform="translate(971.17 491.62) rotate(61.29)"> </text><text class="b4f5feab-6032-4e30-acc3-0786e6d87204" transform="translate(977.03 502.28) rotate(64.75)"> </text><text class="b4f5feab-6032-4e30-acc3-0786e6d87204" transform="translate(982.22 513.26) rotate(68.22)"> </text><text class="b4f5feab-6032-4e30-acc3-0786e6d87204" transform="translate(986.75 524.55) rotate(71.69)"> </text><text class="b4f5feab-6032-4e30-acc3-0786e6d87204" transform="matrix(0.26, 0.97, -0.97, 0.26, 990.58, 536.1)"> </text><text class="b4f5feab-6032-4e30-acc3-0786e6d87204" transform="translate(993.71 547.83) rotate(78.63)"> </text><text class="b4f5feab-6032-4e30-acc3-0786e6d87204" transform="translate(996.12 559.75) rotate(82.08)"> </text><text class="b4f5feab-6032-4e30-acc3-0786e6d87204" transform="translate(997.8 571.8) rotate(85.5)"> </text><text class="b4f5feab-6032-4e30-acc3-0786e6d87204" transform="translate(998.77 583.91) rotate(88.88)"> </text><text class="b4f5feab-6032-4e30-acc3-0786e6d87204" transform="translate(999.03 596.08) rotate(92.29)"> </text><text class="b4f5feab-6032-4e30-acc3-0786e6d87204" transform="matrix(-0.1, 1, -1, -0.1, 998.55, 608.25)"> </text><text class="b4f5feab-6032-4e30-acc3-0786e6d87204" transform="translate(997.36 620.33) rotate(99.19)"> </text><text class="b4f5feab-6032-4e30-acc3-0786e6d87204" transform="translate(995.42 632.35) rotate(102.66)"> </text><text class="b4f5feab-6032-4e30-acc3-0786e6d87204" transform="translate(992.77 644.21) rotate(106.14)"> </text><text class="b4f5feab-6032-4e30-acc3-0786e6d87204" transform="translate(989.41 655.88) rotate(109.6)"> </text><text class="b4f5feab-6032-4e30-acc3-0786e6d87204" transform="translate(985.34 667.36) rotate(113.08)"> </text><text class="b4f5feab-6032-4e30-acc3-0786e6d87204" transform="translate(980.59 678.53) rotate(116.53)"> </text><text class="b4f5feab-6032-4e30-acc3-0786e6d87204" transform="matrix(-0.5, 0.87, -0.87, -0.5, 975.17, 689.43)"> </text><text class="b4f5feab-6032-4e30-acc3-0786e6d87204" transform="translate(969.1 699.97) rotate(123.43)"> </text><text class="b4f5feab-6032-4e30-acc3-0786e6d87204" transform="matrix(-0.6, 0.8, -0.8, -0.6, 962.42, 710.11)"> </text><text class="b4f5feab-6032-4e30-acc3-0786e6d87204" transform="matrix(-0.65, 0.76, -0.76, -0.65, 955.14, 719.86)"> </text><text class="b4f5feab-6032-4e30-acc3-0786e6d87204" transform="matrix(-0.69, 0.72, -0.72, -0.69, 947.29, 729.14)"> </text><text class="b4f5feab-6032-4e30-acc3-0786e6d87204" transform="matrix(-0.73, 0.68, -0.68, -0.73, 938.89, 737.94)"> </text><text class="b4f5feab-6032-4e30-acc3-0786e6d87204" transform="matrix(-0.77, 0.64, -0.64, -0.77, 929.98, 746.23)"> </text><text class="b4f5feab-6032-4e30-acc3-0786e6d87204" transform="matrix(-0.81, 0.59, -0.59, -0.81, 920.6, 753.96)"> </text><text class="b4f5feab-6032-4e30-acc3-0786e6d87204" transform="matrix(-0.84, 0.54, -0.54, -0.84, 910.75, 761.13)"> </text><text class="b4f5feab-6032-4e30-acc3-0786e6d87204" transform="translate(900.52 767.67) rotate(150.92)"> </text><text class="b4f5feab-6032-4e30-acc3-0786e6d87204" transform="matrix(-0.9, 0.43, -0.43, -0.9, 889.91, 773.59)"> </text><text class="b4f5feab-6032-4e30-acc3-0786e6d87204" transform="matrix(-0.93, 0.38, -0.38, -0.93, 878.94, 778.87)"> </text><text class="b4f5feab-6032-4e30-acc3-0786e6d87204" transform="translate(867.7 783.46) rotate(161.32)"> </text><text class="b4f5feab-6032-4e30-acc3-0786e6d87204" transform="matrix(-0.97, 0.26, -0.26, -0.97, 856.19, 787.37)"> </text><text class="b4f5feab-6032-4e30-acc3-0786e6d87204" transform="translate(844.47 790.56) rotate(168.26)"> </text><text class="b4f5feab-6032-4e30-acc3-0786e6d87204" transform="translate(832.55 793.05) rotate(171.71)"> </text><text class="b4f5feab-6032-4e30-acc3-0786e6d87204" transform="translate(820.52 794.82) rotate(175.13)"> </text><text class="b4f5feab-6032-4e30-acc3-0786e6d87204" transform="translate(808.41 795.88) rotate(178.62)"> </text><text class="b4f5feab-6032-4e30-acc3-0786e6d87204" transform="translate(796.24 796.2) rotate(-178.07)"> </text><text class="b4f5feab-6032-4e30-acc3-0786e6d87204" transform="translate(784.09 795.8) rotate(-174.64)"> </text><text class="b4f5feab-6032-4e30-acc3-0786e6d87204" transform="matrix(-0.99, -0.15, 0.15, -0.99, 771.97, 794.68)"> </text><text class="b4f5feab-6032-4e30-acc3-0786e6d87204" transform="translate(759.96 792.83) rotate(-167.71)"> </text><text class="b4f5feab-6032-4e30-acc3-0786e6d87204" transform="translate(748.08 790.25) rotate(-164.24)"> </text><text class="b4f5feab-6032-4e30-acc3-0786e6d87204" transform="matrix(-0.94, -0.33, 0.33, -0.94, 736.38, 786.97)"> </text><text class="b4f5feab-6032-4e30-acc3-0786e6d87204" transform="translate(724.89 782.97) rotate(-157.29)"> </text><text class="b4f5feab-6032-4e30-acc3-0786e6d87204" transform="translate(713.66 778.29) rotate(-153.83)"> </text><text class="b4f5feab-6032-4e30-acc3-0786e6d87204" transform="translate(702.75 772.95) rotate(-150.39)"> </text><text class="b4f5feab-6032-4e30-acc3-0786e6d87204" transform="matrix(-0.84, -0.55, 0.55, -0.84, 692.17, 766.94)"> </text><text class="b4f5feab-6032-4e30-acc3-0786e6d87204" transform="translate(681.97 760.32) rotate(-143.51)"> </text><text class="b4f5feab-6032-4e30-acc3-0786e6d87204" transform="translate(672.18 753.1) rotate(-140.08)"> </text><text class="b4f5feab-6032-4e30-acc3-0786e6d87204" transform="translate(662.85 745.31) rotate(-136.65)"> </text><text class="b4f5feab-6032-4e30-acc3-0786e6d87204" transform="matrix(-0.68, -0.73, 0.73, -0.68, 654, 736.97)"> </text><text class="b4f5feab-6032-4e30-acc3-0786e6d87204" transform="translate(645.65 728.11) rotate(-129.79)"> </text><text class="b4f5feab-6032-4e30-acc3-0786e6d87204" transform="translate(637.86 718.78) rotate(-126.35)"> </text><text class="b4f5feab-6032-4e30-acc3-0786e6d87204" transform="matrix(-0.54, -0.84, 0.84, -0.54, 630.63, 708.98)"> </text><text class="b4f5feab-6032-4e30-acc3-0786e6d87204" transform="matrix(-0.49, -0.87, 0.87, -0.49, 624.03, 698.8)"> </text><text class="b4f5feab-6032-4e30-acc3-0786e6d87204" transform="translate(618.04 688.23) rotate(-115.99)"> </text><text class="b4f5feab-6032-4e30-acc3-0786e6d87204" transform="translate(612.7 677.3) rotate(-112.52)"> </text><text class="b4f5feab-6032-4e30-acc3-0786e6d87204" transform="matrix(-0.33, -0.95, 0.95, -0.33, 608.02, 666.06)"> </text><text class="b4f5feab-6032-4e30-acc3-0786e6d87204" transform="translate(604.05 654.58) rotate(-105.57)"> </text><text class="b4f5feab-6032-4e30-acc3-0786e6d87204" transform="translate(600.77 642.87) rotate(-102.11)"> </text><text class="b4f5feab-6032-4e30-acc3-0786e6d87204" transform="translate(598.21 630.99) rotate(-98.66)"> </text><text class="b4f5feab-6032-4e30-acc3-0786e6d87204" transform="translate(596.36 618.98) rotate(-95.24)"> </text><text class="b4f5feab-6032-4e30-acc3-0786e6d87204" transform="translate(595.19 606.9) rotate(-91.38)"> </text><text class="b4f5feab-6032-4e30-acc3-0786e6d87204" transform="translate(594.83 594.69) rotate(-88.43)"> </text><text class="b4f5feab-6032-4e30-acc3-0786e6d87204" transform="translate(595.15 582.54) rotate(-85)"> </text><text class="b4f5feab-6032-4e30-acc3-0786e6d87204" transform="translate(596.2 570.42) rotate(-81.55)"> </text><text class="b4f5feab-6032-4e30-acc3-0786e6d87204" transform="translate(597.97 558.41) rotate(-78.08)"> </text><text class="b4f5feab-6032-4e30-acc3-0786e6d87204" transform="matrix(0.27, -0.96, 0.96, 0.27, 600.47, 546.5)"> </text><text class="b4f5feab-6032-4e30-acc3-0786e6d87204" transform="translate(603.68 534.77) rotate(-71.13)"> </text><text class="b4f5feab-6032-4e30-acc3-0786e6d87204" transform="matrix(0.38, -0.92, 0.92, 0.38, 607.6, 523.27)"> </text><text class="b4f5feab-6032-4e30-acc3-0786e6d87204" transform="translate(612.21 512) rotate(-64.2)"> </text><text class="b4f5feab-6032-4e30-acc3-0786e6d87204" transform="matrix(0.49, -0.87, 0.87, 0.49, 617.48, 501.06)"> </text><text class="b4f5feab-6032-4e30-acc3-0786e6d87204" transform="translate(623.41 490.45) rotate(-57.31)"> </text><text class="edc58bf3-95f5-4b01-95de-f9ace27f02d0" transform="translate(629.97 480.19) rotate(-53.87)"> </text><text class="edc58bf3-95f5-4b01-95de-f9ace27f02d0" transform="translate(637.14 470.36) rotate(-50.44)"> </text><text class="edc58bf3-95f5-4b01-95de-f9ace27f02d0" transform="translate(644.68 460.98) rotate(-46.04)">s</text><text class="edc58bf3-95f5-4b01-95de-f9ace27f02d0" transform="translate(657.81 447.2) rotate(-40.26)">e</text></g></g></g></g></g></svg>