<svg xmlns="http://www.w3.org/2000/svg" viewBox="0 0 1254.06 904.01"><defs><style>.a508e492-bebe-4968-a7ad-784394e48b44{fill:#058e76;}.a752dcfa-f198-47fc-9a4b-4785854a3a49,.f5a921a7-65a4-460c-b6d7-b8a46651b979{fill:#0b453b;}.a2c851eb-81ab-4434-b814-61ee90acf71d,.a752dcfa-f198-47fc-9a4b-4785854a3a49,.b4fd1cf8-2a44-42fd-b578-66e21cf24ec3,.b4ffcaf3-2a1e-420b-8779-54f5de9aaed1,.b7a706da-4460-4d95-9cae-ab55cd284a6d,.e4703d7a-4c82-42bb-be9a-74b084a23914,.f7cbdecb-49fa-4799-acdc-4145cf56db0d{stroke:#0aae92;stroke-miterlimit:10;}.a752dcfa-f198-47fc-9a4b-4785854a3a49,.f7cbdecb-49fa-4799-acdc-4145cf56db0d{stroke-width:10px;}.a2c851eb-81ab-4434-b814-61ee90acf71d,.b4fd1cf8-2a44-42fd-b578-66e21cf24ec3,.b4ffcaf3-2a1e-420b-8779-54f5de9aaed1,.b7a706da-4460-4d95-9cae-ab55cd284a6d,.e4703d7a-4c82-42bb-be9a-74b084a23914,.f7cbdecb-49fa-4799-acdc-4145cf56db0d{fill:none;}.e4703d7a-4c82-42bb-be9a-74b084a23914{stroke-width:6.37px;}.a2c851eb-81ab-4434-b814-61ee90acf71d{stroke-width:8.74px;}.b4ffcaf3-2a1e-420b-8779-54f5de9aaed1{stroke-width:8.51px;}.a32d648d-0db8-41cf-941f-31175888631c{fill:#0e6456;}.f22889ba-4c7a-4ae2-87ac-4c94d0b58953,.fb385d78-49c6-4fba-829c-ce64704678b0{fill:#e3e0e0;}.b4fd1cf8-2a44-42fd-b578-66e21cf24ec3{stroke-width:3.49px;}.b7a706da-4460-4d95-9cae-ab55cd284a6d{stroke-width:2.45px;}.f9031ba4-49c2-4927-999c-75f88c97dcef,.fb4410ac-ee98-4a85-b857-5a6d2ddb1566{fill:#0aae92;}.f9031ba4-49c2-4927-999c-75f88c97dcef{font-size:33px;font-family:MyriadPro-Regular, Myriad Pro;}.fb385d78-49c6-4fba-829c-ce64704678b0{font-size:6px;font-family:ArialRoundedMTBold, Arial Rounded MT Bold;}.ed3046a3-0e35-4f89-8e06-41143edaf503{letter-spacing:-0.05em;}.b7d3c4df-6fa0-40ca-945c-97884b444817{letter-spacing:-0.02em;}.ba79d629-c091-47df-9a87-2c6a1c5cd8ab{letter-spacing:-0.01em;}.a374dbcb-5da9-4dc1-b0d1-6a21a5670436{letter-spacing:-0.04em;}.e3bffca5-2e88-49b2-b58e-a6902579572e{fill:#efebeb;}.a333cc7a-d4ad-4b44-a757-ccf0c5925d27{fill:#50d3bd;}.a1d91c53-8fac-4ef8-84fe-a30717c4454f{fill:#10f7cd;}.ab85c2be-1af9-4b25-ad53-bc1ea93b8f13{fill:#0a3c33;}.bd67a221-e6fb-4aec-9ded-1a3d9b196bf6{fill:#062a24;}.bed8a443-3474-42b9-9e6b-d1fcc2724929{fill:#14342f;}.fa7fe411-1dc5-411f-a640-2f115263cf80{fill:#72e8d5;}.a5c83b69-6ef3-4042-bcf3-db45223c7cbd{fill:#012721;}.b2088476-42f5-4b07-a7f1-3995bc02489f{fill:#062621;}</style></defs><title>HeroImg2.0</title><g id="f9a60ddf-f683-4a7a-8fcd-db24b9f6d982" data-name="Capa 2"><g id="a4de6b1f-5f4e-42eb-a35f-5c4d955fa72b" data-name="Capa 3"><g id="bf126b5b-9570-483c-bf91-841dc3144124" data-name="Ilustracion"><path class="a508e492-bebe-4968-a7ad-784394e48b44" d="M103.47,453.1A547,547,0,0,0,246.88,333.74C363.36,196.58,631.79-57.71,975.69,11.81,1182,53.52,1246,193.3,1253.34,335.89c16.59,322.94-254,586.33-576.81,567.13-98.82-5.87-214.44-29.31-348.84-79.21C-134.93,652-4.79,515.69,103.47,453.1Z"/><g id="a9cdde7f-c865-4f8d-969c-a83a4778057c" data-name="Panel"><rect class="a752dcfa-f198-47fc-9a4b-4785854a3a49" x="328.69" y="142.81" width="723" height="381" rx="65.44"/><g id="a6e7b842-3f43-4995-964d-456e7ea1e9d1" data-name="Tierra"><circle class="f7cbdecb-49fa-4799-acdc-4145cf56db0d" cx="682.69" cy="338.81" r="140.5"/><ellipse class="e4703d7a-4c82-42bb-be9a-74b084a23914" cx="683.69" cy="340.31" rx="57" ry="140.5"/><ellipse class="a2c851eb-81ab-4434-b814-61ee90acf71d" cx="682.44" cy="339.81" rx="107.25" ry="140.5"/><line class="b4ffcaf3-2a1e-420b-8779-54f5de9aaed1" x1="542.19" y1="338.31" x2="823.19" y2="338.31"/><path class="f7cbdecb-49fa-4799-acdc-4145cf56db0d" d="M683.19,383.81c-46.07,0-87,15.15-112.59,38.56a140.52,140.52,0,0,0,225.18,0C770.16,399,729.27,383.81,683.19,383.81Z"/><path class="f7cbdecb-49fa-4799-acdc-4145cf56db0d" d="M682.87,293.74c46.07,0,87-15.16,112.59-38.57a140.54,140.54,0,0,0-225.18,0C595.91,278.58,636.8,293.74,682.87,293.74Z"/><line class="b4ffcaf3-2a1e-420b-8779-54f5de9aaed1" x1="683.19" y1="198.81" x2="683.19" y2="479.81"/></g><g id="fae7e41c-c6bb-4124-bb11-f361e9dfc229" data-name="Comentario Grafico"><path class="a32d648d-0db8-41cf-941f-31175888631c" d="M582.55,367.78l-41.41,7.61H425.23a36.54,36.54,0,0,0-36.54,36.54v57.81a36.53,36.53,0,0,0,36.54,36.53H543.15a36.53,36.53,0,0,0,36.54-36.53V417.08L592.91,380A9.23,9.23,0,0,0,582.55,367.78Z"/><rect class="f22889ba-4c7a-4ae2-87ac-4c94d0b58953" x="404.69" y="390.03" width="156" height="104.78" rx="26.21"/><g id="b1c549c2-f814-45ea-84fc-5ac2901fd957" data-name="Grafico"><line class="b4fd1cf8-2a44-42fd-b578-66e21cf24ec3" x1="428.76" y1="407.72" x2="428.76" y2="478.51"/><line class="b4fd1cf8-2a44-42fd-b578-66e21cf24ec3" x1="535.82" y1="476.76" x2="428.76" y2="476.76"/><path class="b7a706da-4460-4d95-9cae-ab55cd284a6d" d="M443.06,460.94s16.35-55.57,39.23-14.71,52.3-29.42,52.3-29.42"/><polygon class="fb4410ac-ee98-4a85-b857-5a6d2ddb1566" points="429.14 402.81 424.61 413.13 433.67 413.13 429.14 402.81"/><polygon class="fb4410ac-ee98-4a85-b857-5a6d2ddb1566" points="541.24 477.1 530.92 472.57 530.92 481.63 541.24 477.1"/><g id="ffde5288-8fa4-4f61-af77-11cc711522f0" data-name="LineaDiscontinua"><rect class="fb4410ac-ee98-4a85-b857-5a6d2ddb1566" x="465.54" y="450.39" width="0.82" height="2.41"/><rect class="fb4410ac-ee98-4a85-b857-5a6d2ddb1566" x="465.54" y="453.6" width="0.82" height="2.41"/><rect class="fb4410ac-ee98-4a85-b857-5a6d2ddb1566" x="465.54" y="456.82" width="0.82" height="2.41"/><rect class="fb4410ac-ee98-4a85-b857-5a6d2ddb1566" x="465.54" y="460.03" width="0.82" height="2.41"/><rect class="fb4410ac-ee98-4a85-b857-5a6d2ddb1566" x="465.54" y="447.18" width="0.82" height="2.41"/><rect class="fb4410ac-ee98-4a85-b857-5a6d2ddb1566" x="465.54" y="434.32" width="0.82" height="2.41"/><rect class="fb4410ac-ee98-4a85-b857-5a6d2ddb1566" x="465.54" y="437.54" width="0.82" height="2.41"/><rect class="fb4410ac-ee98-4a85-b857-5a6d2ddb1566" x="465.54" y="440.75" width="0.82" height="2.41"/><rect class="fb4410ac-ee98-4a85-b857-5a6d2ddb1566" x="465.54" y="443.96" width="0.82" height="2.41"/><rect class="fb4410ac-ee98-4a85-b857-5a6d2ddb1566" x="465.54" y="431.11" width="0.82" height="2.41"/><rect class="fb4410ac-ee98-4a85-b857-5a6d2ddb1566" x="465.54" y="466.46" width="0.82" height="2.41"/><rect class="fb4410ac-ee98-4a85-b857-5a6d2ddb1566" x="465.54" y="469.67" width="0.82" height="2.41"/><rect class="fb4410ac-ee98-4a85-b857-5a6d2ddb1566" x="465.54" y="472.88" width="0.82" height="2.41"/><rect class="fb4410ac-ee98-4a85-b857-5a6d2ddb1566" x="465.54" y="476.1" width="0.82" height="2.41"/><rect class="fb4410ac-ee98-4a85-b857-5a6d2ddb1566" x="465.54" y="463.24" width="0.82" height="2.41"/></g><g id="b450aa74-40da-4cf7-9a6b-bb6df60cf2a3" data-name="LineaDiscontinua2"><rect class="fb4410ac-ee98-4a85-b857-5a6d2ddb1566" x="521.11" y="454.91" width="0.82" height="1.95"/><rect class="fb4410ac-ee98-4a85-b857-5a6d2ddb1566" x="521.11" y="457.51" width="0.82" height="1.95"/><rect class="fb4410ac-ee98-4a85-b857-5a6d2ddb1566" x="521.11" y="460.11" width="0.82" height="1.95"/><rect class="fb4410ac-ee98-4a85-b857-5a6d2ddb1566" x="521.11" y="462.72" width="0.82" height="1.95"/><rect class="fb4410ac-ee98-4a85-b857-5a6d2ddb1566" x="521.11" y="452.3" width="0.82" height="1.95"/><rect class="fb4410ac-ee98-4a85-b857-5a6d2ddb1566" x="521.11" y="441.89" width="0.82" height="1.95"/><rect class="fb4410ac-ee98-4a85-b857-5a6d2ddb1566" x="521.11" y="444.49" width="0.82" height="1.95"/><rect class="fb4410ac-ee98-4a85-b857-5a6d2ddb1566" x="521.11" y="447.09" width="0.82" height="1.95"/><rect class="fb4410ac-ee98-4a85-b857-5a6d2ddb1566" x="521.11" y="449.7" width="0.82" height="1.95"/><rect class="fb4410ac-ee98-4a85-b857-5a6d2ddb1566" x="521.11" y="439.28" width="0.82" height="1.95"/><rect class="fb4410ac-ee98-4a85-b857-5a6d2ddb1566" x="521.11" y="467.93" width="0.82" height="1.95"/><rect class="fb4410ac-ee98-4a85-b857-5a6d2ddb1566" x="521.11" y="470.53" width="0.82" height="1.95"/><rect class="fb4410ac-ee98-4a85-b857-5a6d2ddb1566" x="521.11" y="473.13" width="0.82" height="1.95"/><rect class="fb4410ac-ee98-4a85-b857-5a6d2ddb1566" x="521.11" y="475.74" width="0.82" height="1.95"/><rect class="fb4410ac-ee98-4a85-b857-5a6d2ddb1566" x="521.11" y="465.32" width="0.82" height="1.95"/></g></g></g><g id="e6de02f8-a8be-42cd-bb65-35d6935bf479" data-name="Comentario weather"><path class="a32d648d-0db8-41cf-941f-31175888631c" d="M958.15,199.55H840.23a36.54,36.54,0,0,0-36.54,36.54v42.14a9.43,9.43,0,0,0-.68,1.47l-18.32,51.48a9.22,9.22,0,0,0,10.36,12.16l53.75-9.87a9.1,9.1,0,0,0,5.31-3h104a36.54,36.54,0,0,0,36.54-36.54v-57.8A36.54,36.54,0,0,0,958.15,199.55Z"/><rect class="f22889ba-4c7a-4ae2-87ac-4c94d0b58953" x="822.69" y="214.03" width="156" height="104.78" rx="26.21"/><g id="f6fa5af0-b20c-4a43-9428-daca405e77d0" data-name="Sol"><circle class="fb4410ac-ee98-4a85-b857-5a6d2ddb1566" cx="866.82" cy="247.86" r="9"/><rect class="fb4410ac-ee98-4a85-b857-5a6d2ddb1566" x="876.39" y="233.23" width="1.83" height="7.94" rx="0.91" transform="translate(424.68 -550.87) rotate(45)"/><rect class="fb4410ac-ee98-4a85-b857-5a6d2ddb1566" x="855.1" y="233.24" width="1.83" height="7.94" rx="0.91" transform="translate(82.99 674.77) rotate(-45)"/><rect class="fb4410ac-ee98-4a85-b857-5a6d2ddb1566" x="876.45" y="254.58" width="1.83" height="7.94" rx="0.91" transform="translate(74.15 696.11) rotate(-45)"/><rect class="fb4410ac-ee98-4a85-b857-5a6d2ddb1566" x="855.04" y="254.58" width="1.83" height="7.94" rx="0.91" transform="translate(433.52 -529.53) rotate(45)"/><rect class="fb4410ac-ee98-4a85-b857-5a6d2ddb1566" x="865.72" y="228.81" width="1.83" height="7.94" rx="0.91"/><rect class="fb4410ac-ee98-4a85-b857-5a6d2ddb1566" x="865.72" y="259" width="1.83" height="7.94" rx="0.91"/><rect class="fb4410ac-ee98-4a85-b857-5a6d2ddb1566" x="880.81" y="243.9" width="1.83" height="7.94" rx="0.91" transform="translate(1129.6 -633.85) rotate(90)"/><rect class="fb4410ac-ee98-4a85-b857-5a6d2ddb1566" x="850.62" y="243.9" width="1.83" height="7.94" rx="0.91" transform="matrix(0, 1, -1, 0, 1099.41, -603.67)"/></g><text class="f9031ba4-49c2-4927-999c-75f88c97dcef" transform="translate(896 258.32)">21ºC</text><g id="a640723d-8211-40d8-bab4-ed8fddc33712" data-name="Weekdays"><rect class="fb4410ac-ee98-4a85-b857-5a6d2ddb1566" x="851.82" y="280.02" width="34.73" height="6.15" rx="3.07"/><rect class="fb4410ac-ee98-4a85-b857-5a6d2ddb1566" x="851.82" y="301.95" width="34.73" height="6.15" rx="3.07"/><rect class="fb4410ac-ee98-4a85-b857-5a6d2ddb1566" x="851.82" y="290.99" width="34.73" height="6.15" rx="3.07"/><rect class="fb4410ac-ee98-4a85-b857-5a6d2ddb1566" x="890.85" y="280.02" width="34.73" height="6.15" rx="3.07"/><rect class="fb4410ac-ee98-4a85-b857-5a6d2ddb1566" x="929.24" y="280.02" width="34.73" height="6.15" rx="3.07"/><rect class="fb4410ac-ee98-4a85-b857-5a6d2ddb1566" x="890.85" y="301.95" width="34.73" height="6.15" rx="3.07"/><rect class="fb4410ac-ee98-4a85-b857-5a6d2ddb1566" x="890.85" y="290.99" width="34.73" height="6.15" rx="3.07"/><text class="fb385d78-49c6-4fba-829c-ce64704678b0" transform="translate(864.66 284.96)">Mo</text><text class="fb385d78-49c6-4fba-829c-ce64704678b0" transform="translate(863.51 295.93)"><tspan class="ed3046a3-0e35-4f89-8e06-41143edaf503">T</tspan><tspan x="3.45" y="0">ue</tspan></text><text class="fb385d78-49c6-4fba-829c-ce64704678b0" transform="translate(862.39 306.89)"><tspan class="b7d3c4df-6fa0-40ca-945c-97884b444817">W</tspan><tspan x="5.48" y="0">ed</tspan></text><text class="fb385d78-49c6-4fba-829c-ce64704678b0" transform="translate(900.73 284.96)"><tspan class="ba79d629-c091-47df-9a87-2c6a1c5cd8ab">T</tspan><tspan x="3.67" y="0">hur</tspan></text><text class="fb385d78-49c6-4fba-829c-ce64704678b0" transform="translate(903.69 295.93)"><tspan class="a374dbcb-5da9-4dc1-b0d1-6a21a5670436">F</tspan><tspan x="3.4" y="0">ri</tspan></text><text class="fb385d78-49c6-4fba-829c-ce64704678b0" transform="translate(902.85 306.89)">S<tspan class="b7d3c4df-6fa0-40ca-945c-97884b444817" x="4" y="0">a</tspan><tspan x="7.42" y="0">t</tspan></text><text class="fb385d78-49c6-4fba-829c-ce64704678b0" transform="translate(940.37 284.96)">Sun</text></g></g><g id="ebd0f578-271e-44cd-aee4-ae83bcdd5279" data-name="Grafico circular"><path class="e3bffca5-2e88-49b2-b58e-a6902579572e" d="M624.4,220.53,492.34,199.6a62.42,62.42,0,1,0,18.22,23.9L624,225.07A2.28,2.28,0,0,0,624.4,220.53Z"/><path class="a333cc7a-d4ad-4b44-a757-ccf0c5925d27" d="M454.06,248.92l-31.84,43.83a54.18,54.18,0,0,1-12-75.67,52.54,52.54,0,0,1,43.83-22.33Z"/><path class="a1d91c53-8fac-4ef8-84fe-a30717c4454f" d="M454.06,248.92l43.83,31.84a54.18,54.18,0,0,1-75.67,12h0Z"/><path class="a32d648d-0db8-41cf-941f-31175888631c" d="M454.06,248.92l43.83-31.84a53.31,53.31,0,0,1,0,63.68Z"/><path class="fb4410ac-ee98-4a85-b857-5a6d2ddb1566" d="M454.06,248.92V194.75c17.95,0,33.28,7.8,43.83,22.33Z"/></g></g><ellipse class="f5a921a7-65a4-460c-b6d7-b8a46651b979" cx="690.19" cy="736.81" rx="386.5" ry="31"/><path class="ab85c2be-1af9-4b25-ad53-bc1ea93b8f13" d="M464.93,745.1a246.36,246.36,0,0,0-33.35,14.75c30,2.16,64.16,4,101.47,5.29,12.41-9.18,18.94-18.06,16.64-24.45C545.11,727.94,507.16,729.92,464.93,745.1Z"/><path class="ab85c2be-1af9-4b25-ad53-bc1ea93b8f13" d="M998.23,744.4c-42.23-21.54-80.18-24.34-84.77-6.27-1.63,6.44,1.21,14.67,7.43,23.55,36.87-2.2,68.67-4.92,93.76-8C1009.42,750.42,1003.94,747.31,998.23,744.4Z"/><g id="ba3c6657-7c06-43a6-b6ee-5e9efce510df" data-name="Mujer"><g id="aa0e7a9b-cdba-4684-a795-08726e0ca96b" data-name="Tacon"><path class="bd67a221-e6fb-4aec-9ded-1a3d9b196bf6" d="M969.69,717.91l-3,7s1,3,5,2l2,8h1l2-8s3-1,2-3l-2-7Z"/><path class="bd67a221-e6fb-4aec-9ded-1a3d9b196bf6" d="M959.89,734.91h2l3-6-4,4A3.49,3.49,0,0,0,959.89,734.91Z"/><path class="bed8a443-3474-42b9-9e6b-d1fcc2724929" d="M961.79,734.91h12l-2-8.16s-4,1-5-2l-2.25,4.59Z"/></g><g id="bf9a4626-fe30-4e44-b924-c95f90f05b79" data-name="Tacon"><path class="bd67a221-e6fb-4aec-9ded-1a3d9b196bf6" d="M936.69,717.91l-3,7s1,3,5,2l2,8h1l2-8s3-1,2-3l-2-7Z"/><path class="bd67a221-e6fb-4aec-9ded-1a3d9b196bf6" d="M926.89,734.91h2l3-6-4,4A3.49,3.49,0,0,0,926.89,734.91Z"/><path class="bed8a443-3474-42b9-9e6b-d1fcc2724929" d="M928.79,734.91h12l-2-8.16s-4,1-5-2l-2.25,4.59Z"/></g><path class="a333cc7a-d4ad-4b44-a757-ccf0c5925d27" d="M950.69,462.91s0,7-1,8h17s-2-7-1-8Z"/><path class="a333cc7a-d4ad-4b44-a757-ccf0c5925d27" d="M978.24,473.91s6.47,7.56,9.25,13.23l12,26.45s1.85,3.78.92,5.67l-14.79,18s-1.85,8.51-5.55,3.78l-7.4-10.39,8.33,1.89,8.32-17-13-14.17-.92-17.95Z"/><path class="a333cc7a-d4ad-4b44-a757-ccf0c5925d27" d="M959.31,462.41s-3,3-1,11h-10s3-2,2-12l7-1,2,1Z"/><path class="a32d648d-0db8-41cf-941f-31175888631c" d="M941,431.91s5-11,17.85-11,16.85,9,16.85,9,6.94,8-4,35c0,0-4,3-14.88,1s-14.87,4-14.87,4,5-18,5-27C947,442.91,939,431.91,941,431.91Z"/><path class="fa7fe411-1dc5-411f-a640-2f115263cf80" d="M944.32,460.5l-2.63-9.59a6.93,6.93,0,0,1,0-5s1-2,0-7a10.56,10.56,0,0,1,0-6l7,10,1,10-2,6-2,2Z"/><path class="a333cc7a-d4ad-4b44-a757-ccf0c5925d27" d="M922.69,578.55V581l3,1.49a1.09,1.09,0,0,1,.5,1.5l-5-1.5.5.5s3,1,3.49,2c0,0,.49,1,0,1.49l-5-1.49-1.49-3.49,2.49-2.49,1-1Z"/><path class="a32d648d-0db8-41cf-941f-31175888631c" d="M943.69,470.91l3-1h16l12,2s3,0,4,2c0,0,5,7-1,22l-4,19s-2,10-6,11c0,0-15,2-27-2l-3-11,6-23s5-6,1-12Z"/><path class="bd67a221-e6fb-4aec-9ded-1a3d9b196bf6" d="M940.89,522.91s10.14,3,28.39,2c0,0,13.18,18,13.18,21,0,0,3,10,2,12,0,0,1,54-6.09,81l1,4s5.07,16,2,32l-3,42v1s-2,2-11.15,1l-3-27s-3-25-2-35a104.27,104.27,0,0,0,1-12s-1-6-1-8l-6.08-23s-7.1,31-8.11,31c0,0,6.08,14,1,39l-3,34s-3,2-11.15,0l-2-29a54.24,54.24,0,0,1-1-9s-2-23,0-35v-1s-1-10-1-12l-4.06-61S924.67,537.91,940.89,522.91Z"/><path class="a5c83b69-6ef3-4042-bcf3-db45223c7cbd" d="M955.79,613.91l5.3-37s-17,0-21-3c0,0,20,2,22-6,0,0,15.2,10,22.2-5,0,0,.4,57-6.1,76.6l1.3,4.2s4.6,10.2,1.6,38.2l-3,36s-1,2-11,1l-4-33s-2-20-1-26c0,0,1-11,1-15a66,66,0,0,1-1.3-8,15.77,15.77,0,0,0-1-4Z"/><path class="fa7fe411-1dc5-411f-a640-2f115263cf80" d="M944.12,470.91l1.5,7s4,5.48-1,11.46c0,0-20.93,81.22-21.93,81.22l.5,3s3,4-3.49,8l-.49.5s1,4,2.49,4.48a3.74,3.74,0,0,1,1.49,1.5s.5,1.49-1,1a29.21,29.21,0,0,1-4-2,6.19,6.19,0,0,1-1-1.5,40.36,40.36,0,0,1-1.49-5.48l1.49-6a14.67,14.67,0,0,0,1-4.48s5-46.84,8.47-57.31l1-25.91s-1-11.46,8.47-13.46Z"/></g><g id="a5377da9-5a78-4e49-8352-3646a58ce043" data-name="Hombre"><path class="fa7fe411-1dc5-411f-a640-2f115263cf80" d="M516,433.84a12.58,12.58,0,0,1,0,5.43s-.68.67.68,4.74a9.35,9.35,0,0,1,0,4.75l-2,10.86s-.68,4.07-6.1,4.07c0,0-2.72,0-2.72.67v4.07l-15.6.68a21.26,21.26,0,0,0,0-7.46l20.35-31.2,4.75,2.71Z"/><path class="a333cc7a-d4ad-4b44-a757-ccf0c5925d27" d="M501.43,468.62s.3-4.26-1.05-5.61l-2.72-2v-1.35l4.75-6.11.68.68a2.37,2.37,0,0,1,.68,1.36s-.11,10.31,10.46,5.15c0,0-1,2.31-4.45,2.91l-1.26.08s-2.72,0-2.72.67v4.07Z"/><path class="a32d648d-0db8-41cf-941f-31175888631c" d="M507.84,416.2l-1.36-3.39s8.82,4.07,10.85,7.46c0,0,8.15,10.86-3.39,14.93,0,0-1.35,0-1.35,3.39,0,0,.67,6.1,0,6.78a2.37,2.37,0,0,1-1.36.68s.68-4.07-2-6.11c0,0-6.1-1.35-3.39,6.11,0,0,2.72,4.07.68,6.78l-6.78,7.46s-.68,1.36-3.39,2h-5.43s-2,0-3.39-2.71c0,0-12.21-11.54-11.53-19,0,0-2-3.39,2.71-8.82,0,0-4.75-12.88,14.24-15.6Z"/><path class="a1d91c53-8fac-4ef8-84fe-a30717c4454f" d="M505.8,465.72l6.11,6.11s-11.53,2.71-28.49.67l7.46-6.78S504.45,465,505.8,465.72Z"/><path class="a333cc7a-d4ad-4b44-a757-ccf0c5925d27" d="M467.14,591.89v1.36l.68,1.36-2,6.78s1.36.68,2-1.36l1.35-4.07v.68l-1.35,6.11s1.35.68,2-1.36l2-6.1-1.36-3.4-2.71-.67Z"/><path class="fa7fe411-1dc5-411f-a640-2f115263cf80" d="M464.42,586.47v1.35l.68,10.86s1.36,0,2-2.72v-2.71l3.39,2-.68,6.78s.68,3.39,1.36,2l2-7.46-1.35-6.1-2.72-3.39-2-2.72h-1.36l-1.36.68Z"/><path class="a333cc7a-d4ad-4b44-a757-ccf0c5925d27" d="M539.07,594.85l.3,2.86-3.69,2.13a1.23,1.23,0,0,0-.47,1.79l6.28-2.4-.58.64s-3.76,1.56-4.28,2.77c0,0-.53,1.21.18,1.72l6.28-2.4,1.51-4.22-3.53-2.52-1.42-1Z"/><path class="fa7fe411-1dc5-411f-a640-2f115263cf80" d="M537.81,589.19l.26-3.11,6-.64a18.29,18.29,0,0,0,1.52,3.5l2.66,6.67c.13,1.15-1.27,6.51-1.27,6.51a7,7,0,0,1-1.11,1.85,39,39,0,0,1-4.92,2.84c-1.88.78-1.42-1-1.42-1a4.71,4.71,0,0,1,1.76-1.92c1.88-.78,2.68-5.5,2.68-5.5l-.7-.5C534.42,594.18,537.81,589.19,537.81,589.19Z"/><path class="bd67a221-e6fb-4aec-9ded-1a3d9b196bf6" d="M520.05,728.92l-.68,8.82s25.78,1.36,29.17,0c0,0,.68-6.11-5.43-6.11,0,0-8.14-.67-8.82-2Z"/><path class="bd67a221-e6fb-4aec-9ded-1a3d9b196bf6" d="M483.42,730.28l-.68,8.82s25.78,1.35,29.17,0c0,0,.68-6.11-5.43-6.11,0,0-8.14-.68-8.82-2Z"/><path class="b2088476-42f5-4b07-a7f1-3995bc02489f" d="M462.22,486.07l-.87,2.72L457,534.23a12.19,12.19,0,0,0,0,6.11l6.9,45.45a8.44,8.44,0,0,0,4.31,0l2.59-50.2,1.72-42.06-6-9.49-2.59-.68Z"/><path class="f5a921a7-65a4-460c-b6d7-b8a46651b979" d="M477.31,596s4.07,50.2,4.75,50.88c0,0-4.07,31.2-2,35.27l2,48.17s9.5,2,18.32.68l4.07-108.54-1.36-38.67L492.91,579l-9.49,1.35-6.11,9.5Z"/><path class="a32d648d-0db8-41cf-941f-31175888631c" d="M527.51,594.61l7.46,56.3,2,78.69s-4.07,3.39-18.32,0l-3.39-38.67s-4.07-31.2-3.39-35.27l-15.6-57,4.07-6.79,9.49-4.07s13.57.68,14.25.68S527.51,594.61,527.51,594.61Z"/><path class="bd67a221-e6fb-4aec-9ded-1a3d9b196bf6" d="M511.91,471.83l17,9.49S537,484,539,497.6V539l8.14,49.52s-7.46,4.75-11.53,3.39l-2-6.1.67,9.5s-24.42,6.1-38,5.42l-5.43-10.85L484.77,600s-12.21-2-16.95-7.46l-1.36-52.91-4.07-52.91s.68-4.75,6.78-7.46l14.25-6.79S507.16,469.79,511.91,471.83Z"/><path class="a5c83b69-6ef3-4042-bcf3-db45223c7cbd" d="M524.57,478.92s-7.91,3.08-7.91,11.9L518,539l17.64,52.91s4.07,2,11.53-3.39L539,539V497.6s-2.19-11.68-7.88-15Z"/></g></g></g></g></svg>