<svg xmlns="http://www.w3.org/2000/svg" viewBox="0 0 938.22 616.67"><defs><style>.ff148102-92e4-4c30-a752-ef62c422cd02{fill:none;stroke:#0b453b;stroke-miterlimit:10;stroke-width:20px;}.e0dfea96-8626-489b-8e9e-406b4f9398cd{font-size:249px;fill:#10f7cd;font-family:Asap-Bold, Asap;font-weight:700;}.b7d3cf94-ecb2-49a5-9734-71a81a4c24ac{letter-spacing:-0.07em;}.f22c11f5-6641-4977-b621-7644ddb33018{letter-spacing:-0.01em;}.b434af4d-9041-4a15-be82-526f409f23d1{letter-spacing:0em;}.bbf16898-dc67-4e83-93e7-db32f93e761e{letter-spacing:-0.04em;}</style></defs><title>Logo</title><g id="bb7a717a-0acf-406d-9924-df576a6f3610" data-name="Capa 2"><g id="a4521eb6-213e-47b4-8f22-15312c149293" data-name="Logo_1"><g id="e23bd202-3b0d-4883-b9c8-5d9ea56571a1" data-name="Logo_1"><g id="e6824570-a355-4d22-9aad-0863b4e20c3d" data-name="Tierra"><circle class="ff148102-92e4-4c30-a752-ef62c422cd02" cx="457.06" cy="306.75" r="296.75"/><ellipse class="ff148102-92e4-4c30-a752-ef62c422cd02" cx="459.17" cy="309.92" rx="120.39" ry="296.75"/><ellipse class="ff148102-92e4-4c30-a752-ef62c422cd02" cx="456.53" cy="308.86" rx="226.52" ry="296.75"/><line class="ff148102-92e4-4c30-a752-ef62c422cd02" x1="160.31" y1="305.69" x2="753.81" y2="305.69"/><path class="ff148102-92e4-4c30-a752-ef62c422cd02" d="M458.12,401.79c-97.31,0-183.69,32-237.8,81.45a296.79,296.79,0,0,0,475.59,0C641.8,433.8,555.43,401.79,458.12,401.79Z"/><path class="ff148102-92e4-4c30-a752-ef62c422cd02" d="M457.44,211.55c97.31,0,183.68-32,237.79-81.45a296.79,296.79,0,0,0-475.59,0C273.75,179.54,360.13,211.55,457.44,211.55Z"/><line class="ff148102-92e4-4c30-a752-ef62c422cd02" x1="458.12" y1="11.06" x2="458.12" y2="604.56"/></g><text class="e0dfea96-8626-489b-8e9e-406b4f9398cd" transform="translate(42.58 307.59)"><tspan class="b7d3cf94-ecb2-49a5-9734-71a81a4c24ac">T<tspan class="f22c11f5-6641-4977-b621-7644ddb33018" x="119.27" y="0">e</tspan><tspan class="b434af4d-9041-4a15-be82-526f409f23d1" x="250.99" y="0">chno </tspan></tspan><tspan class="bbf16898-dc67-4e83-93e7-db32f93e761e" x="-42.58" y="209">W</tspan><tspan x="174.05" y="209">eather</tspan></text></g></g></g></svg>